<svg width="512" height="512" viewBox="0 0 512 512" fill="none" xmlns="http://www.w3.org/2000/svg">
  <!-- Blue background -->
  <rect width="512" height="512" fill="#5B5FED"/>
  
  <!-- Pixelated medical cross design -->
  <!-- Top left wing -->
  <rect x="160" y="80" width="48" height="48" fill="white"/>
  <rect x="208" y="128" width="48" height="48" fill="white"/>
  <rect x="128" y="128" width="32" height="48" fill="white"/>
  <rect x="96" y="176" width="32" height="48" fill="white"/>
  <rect x="64" y="224" width="32" height="48" fill="white"/>
  
  <!-- Top right wing -->
  <rect x="304" y="80" width="48" height="48" fill="white"/>
  <rect x="256" y="128" width="48" height="48" fill="white"/>
  <rect x="352" y="128" width="32" height="48" fill="white"/>
  <rect x="384" y="176" width="32" height="48" fill="white"/>
  <rect x="416" y="224" width="32" height="48" fill="white"/>
  
  <!-- Center red heart/cross -->
  <rect x="224" y="176" width="64" height="32" fill="#FF4444"/>
  <rect x="208" y="208" width="96" height="32" fill="#FF4444"/>
  <rect x="224" y="240" width="64" height="32" fill="#FF4444"/>
  
  <!-- Bottom left wing -->
  <rect x="64" y="272" width="32" height="48" fill="white"/>
  <rect x="96" y="320" width="32" height="48" fill="white"/>
  <rect x="128" y="368" width="32" height="48" fill="white"/>
  <rect x="160" y="416" width="48" height="48" fill="white"/>
  <rect x="208" y="368" width="48" height="48" fill="white"/>
  
  <!-- Bottom right wing -->
  <rect x="416" y="272" width="32" height="48" fill="white"/>
  <rect x="384" y="320" width="32" height="48" fill="white"/>
  <rect x="352" y="368" width="32" height="48" fill="white"/>
  <rect x="304" y="416" width="48" height="48" fill="white"/>
  <rect x="256" y="368" width="48" height="48" fill="white"/>
</svg>
